<svg width="980" height="938" viewBox="0 0 980 938" fill="none" xmlns="http://www.w3.org/2000/svg">
<path d="M438.875 31.7736C459.784 -10.5911 520.194 -10.5913 541.103 31.7736L648.359 249.101C656.662 265.924 672.712 277.584 691.277 280.281L931.111 315.132C977.864 321.926 996.532 379.38 962.701 412.357L789.155 581.522C775.721 594.617 769.591 613.484 772.763 631.974L813.731 870.839C821.718 917.403 772.844 952.911 731.027 930.927L516.513 818.151C499.907 809.421 480.069 809.421 463.464 818.151L248.95 930.927C207.133 952.911 158.26 917.403 166.246 870.839L198.937 680.235L201 676.5C209.599 667.475 219.641 659.945 230.713 654.218L344.488 595.368L515.206 511.395C523.632 507.25 528.226 497.965 526.409 488.752C524.229 477.695 513.623 470.397 502.517 472.312L290.488 508.868L199.106 525.241C180.273 528.616 160.919 527.679 142.5 522.5L101.306 494.266L17.2754 412.357C-16.555 379.38 2.11369 321.926 48.8663 315.132L288.7 280.281C307.265 277.584 323.314 265.924 331.617 249.101L438.875 31.7736Z" fill="#D9D9D9"/>
</svg>
